<?xml version="1.0" standalone="no"?>
<!DOCTYPE svg PUBLIC "-//W3C//DTD SVG 20010904//EN"
 "http://www.w3.org/TR/2001/REC-SVG-20010904/DTD/svg10.dtd">
<svg version="1.0" xmlns="http://www.w3.org/2000/svg"
 width="790.000000pt" height="790.000000pt" viewBox="0 0 790.000000 790.000000"
 preserveAspectRatio="xMidYMid meet">
<metadata>
Created by potrace 1.14, written by Peter Selinger 2001-2017
</metadata>
<g transform="translate(0.000000,790.000000) scale(0.100000,-0.100000)"
fill="#000000" stroke="none">
<path d="M3817 7884 c-1 -1 -54 -4 -117 -8 -63 -3 -124 -8 -135 -10 -11 -2
-56 -7 -100 -12 -44 -4 -82 -8 -85 -9 -3 0 -26 -4 -51 -8 -60 -10 -94 -16
-194 -37 -27 -6 -60 -12 -72 -15 -130 -24 -428 -120 -625 -200 -529 -216
-1050 -588 -1431 -1020 -39 -44 -73 -82 -76 -85 -12 -10 -148 -186 -182 -235
-19 -27 -36 -52 -39 -55 -3 -3 -23 -32 -44 -65 -22 -33 -52 -79 -68 -103 -16
-24 -38 -62 -50 -85 -11 -23 -24 -44 -28 -47 -15 -10 -187 -369 -233 -485 -92
-237 -171 -503 -203 -685 -2 -14 -8 -45 -14 -70 -18 -87 -33 -201 -45 -335 -3
-38 -8 -90 -11 -115 -3 -25 -5 -133 -5 -240 -1 -238 7 -354 37 -570 3 -25 7
-54 9 -65 6 -44 18 -105 42 -215 13 -63 26 -122 28 -130 26 -124 123 -411 197
-585 79 -185 163 -346 281 -540 226 -372 603 -783 972 -1062 348 -262 745
-469 1155 -601 126 -41 294 -88 340 -96 14 -2 61 -11 105 -21 44 -9 93 -18
108 -20 16 -2 40 -6 55 -9 15 -3 45 -8 67 -10 22 -3 60 -8 85 -11 137 -18 263
-22 515 -20 154 2 296 6 315 9 19 3 58 8 85 11 52 5 186 24 220 31 11 3 36 7
55 10 19 3 71 14 115 24 45 11 92 21 105 23 93 17 384 113 548 181 171 70 301
134 507 251 88 50 301 193 375 252 8 6 42 33 75 59 197 156 464 420 615 610
237 297 457 670 585 994 20 52 41 104 46 115 50 114 154 504 183 685 3 19 7
44 10 55 2 11 7 47 11 80 4 32 8 67 10 76 2 9 6 52 10 95 3 43 8 99 11 124 6
55 6 422 0 508 -9 126 -27 286 -42 367 -2 10 -6 37 -9 60 -4 22 -13 68 -20
101 -8 34 -16 73 -19 85 -2 13 -9 44 -15 69 -7 25 -13 53 -16 62 -72 305 -255
738 -433 1028 -261 425 -514 714 -930 1062 -56 46 -241 178 -250 178 -6 0 -12
3 -14 8 -1 4 -39 30 -83 58 -488 309 -1039 507 -1615 579 -19 2 -55 7 -79 10
-100 12 -533 28 -544 19z"/>
</g>
</svg>
